<mxfile host="app.diagrams.net" modified="2024-03-26T14:31:43.452Z" agent="Mozilla/5.0 (Windows NT 10.0; Win64; x64) AppleWebKit/537.36 (KHTML, like Gecko) Chrome/122.0.0.0 Safari/537.36" version="24.0.7" etag="r56MSDqlYNpE1XmggrME" type="github">
  <diagram name="PÃ¡gina-1" id="suOVjrx486_NraofDhK_">
    <mxGraphModel>
      <root>
        <mxCell id="0" />
        <mxCell id="1" parent="0" />
      </root>
    </mxGraphModel>
  </diagram>
</mxfile>
